Coordinates
version=1
nRows=8
nColumns=42
inDegrees=yes

Units are S.I. units (second, meters, Newtons, ...)
If the header above contains a line with 'inDegrees', this indicates whether rotational values are in degrees (yes) or radians (no).

endheader
time	pelvis_tilt	pelvis_list	pelvis_rotation	pelvis_tx	pelvis_ty	pelvis_tz	hip_flexion_r	hip_adduction_r	hip_rotation_r	knee_angle_r	knee_adduction_r	knee_angle_r_beta	ankle_angle_r	subtalar_angle_r	mtp_angle_r	hip_flexion_l	hip_adduction_l	hip_rotation_l	knee_angle_l	knee_adduction_l	knee_angle_l_beta	ankle_angle_l	subtalar_angle_l	mtp_angle_l	lumbar_extension	lumbar_bending	lumbar_rotation	arm_flex_r	arm_add_r	arm_rot_r	elbow_flex_r	pro_sup_r	wrist_flex_r	wrist_dev_r	arm_flex_l	arm_add_l	arm_rot_l	elbow_flex_l	pro_sup_l	wrist_flex_l	wrist_dev_l
      0.29000000	     11.15231661	      3.69558211	     -7.66354233	     -0.77792551	      0.95548490	     -0.26821198	    -22.12619645	     -8.60503672	    -11.77129326	     40.78181860	     -4.46854289	      0.71177701	      6.68220493	      9.75951018	     -8.64527694	     13.85424197	      3.16491691	    -25.46560796	     20.77593166	     -5.97370463	      0.36260841	      7.24191797	     18.07329873	     -8.64527694	    -22.29843933	     -8.69167366	      3.76368676	      1.12669370	    -10.31933303	      5.71759228	     40.23689618	     90.00000001	      0.00000000	      0.00000000	    -14.45852876	     -7.63442899	     -5.55411935	     30.86694263	     90.00000001	      0.00000000	      0.00000000
      0.30000000	     11.16726689	      4.17228552	     -7.33532977	     -0.76250164	      0.95712182	     -0.27014623	    -20.42125876	     -9.42497029	    -12.21928755	     44.72941642	     -4.92507592	      0.78067559	      5.17548502	      7.89432367	     -8.62075877	     13.25376497	      3.89777301	    -25.29548727	     21.37352789	     -6.05277743	      0.37303843	      7.62457453	     18.17112681	     -8.62075877	    -22.37556488	     -9.13017318	      3.06254053	      0.49126798	    -10.05533140	      5.69340495	     39.91474160	     90.00000001	      0.00000000	      0.00000000	    -14.00608290	     -7.92246860	     -5.71925210	     31.26109600	     90.00000001	      0.00000000	      0.00000000
      0.31000000	     11.14256956	      4.32853668	     -6.86173011	     -0.74760857	      0.95895260	     -0.27192847	    -18.72886698	     -9.63637445	    -11.39325542	     48.39051945	     -4.67109895	      0.84457389	      3.13213796	      2.71734498	     -8.55430905	     12.62655089	      4.23682045	    -25.02850470	     21.97058929	     -6.05094313	      0.38345912	      8.14247815	     18.33848387	     -8.55430905	    -22.52948747	     -9.16686137	      2.24998018	      0.19086248	     -9.67879480	      5.41861237	     39.04217363	     90.00000001	      0.00000000	      0.00000000	    -13.43437156	     -8.15200875	     -6.15400827	     31.66592214	     90.00000001	      0.00000000	      0.00000000
      0.32000000	     11.12373810	      4.61387707	     -6.47937400	     -0.73294252	      0.96074932	     -0.27375730	    -16.89710280	    -10.05972825	    -10.81519790	     51.89426243	     -4.51383760	      0.90572574	      2.18575782	     -0.97074092	     -8.49165309	     11.83176270	      4.77972504	    -24.84496477	     22.18324803	     -6.05045987	      0.38717072	      8.85055809	     18.66039689	     -8.49165309	    -22.70123606	     -9.32899378	      1.51089772	     -0.25484000	     -9.39449371	      5.24434465	     38.49459480	     90.00000001	      0.00000000	      0.00000000	    -12.78474806	     -8.42624435	     -6.35666136	     32.02946969	     90.00000001	      0.00000000	      0.00000000
      0.33000000	     11.13707887	      4.96968394	     -6.14938820	     -0.71846721	      0.96257746	     -0.27558831	    -14.98667708	    -10.61454791	    -10.89263035	     55.09745305	     -4.79944562	      0.96163197	      2.39858131	     -2.48039095	     -8.47249558	     10.84382672	      5.45413801	    -24.63640175	     22.05524070	     -6.01555452	      0.38493657	      9.58423209	     18.95292681	     -8.47249558	    -22.91363795	     -9.54872795	      0.80203278	     -0.79395271	     -9.18443196	      5.24913806	     38.17902497	     90.00000001	      0.00000000	      0.00000000	    -12.08743093	     -8.77023411	     -6.38150635	     32.40958786	     90.00000001	      0.00000000	      0.00000000
      0.34000000	     11.04847926	      4.98207383	     -5.75934175	     -0.70441217	      0.96460245	     -0.27716247	    -13.02929729	    -10.54431346	     -9.66253577	     57.89429170	     -4.17068200	      1.01044601	      1.56145872	     -7.41629242	     -8.41035266	      9.98187704	      5.63218193	    -24.78464345	     22.03313050	     -6.03606741	      0.38455067	     10.45255476	     19.98205461	     -8.41035266	    -23.07297190	     -9.36076938	      0.12652888	     -0.99732761	     -8.90208167	      5.04968934	     37.27630138	     90.00000001	      0.00000000	      0.00000000	    -11.33194564	     -9.07721463	     -6.28611087	     32.77053786	     90.00000001	      0.00000000	      0.00000000
      0.35000000	     11.02884382	      5.09264330	     -5.43249304	     -0.69040558	      0.96672846	     -0.27874866	    -11.05891118	    -10.65883734	     -9.72010299	     60.23862928	     -4.51236071	      1.05136242	      2.32810997	     -8.61267390	     -8.39194588	      8.86716727	      6.02277550	    -24.58292982	     21.62895907	     -5.97071254	      0.37749655	     11.15245086	     20.42383714	     -8.39194588	    -23.28760239	     -9.26483109	     -0.44730742	     -1.45792912	     -8.75427156	      5.04266256	     36.92319436	     90.00000001	      0.00000000	      0.00000000	    -10.48470664	     -9.39717623	     -6.23584080	     33.11778780	     90.00000001	      0.00000000	      0.00000000
      0.36000000	     10.94964695	      4.96313893	     -5.11446711	     -0.67661605	      0.96900954	     -0.28009829	     -9.07879020	    -10.36163371	     -9.06428626	     62.11309219	     -4.30813430	      1.08407797	      2.50918786	    -11.27143306	     -8.34660403	      7.83386316	      6.04155747	    -24.72198268	     21.31518472	     -5.93420668	      0.37202015	     12.04008910	     21.58194296	     -8.34660403	    -23.43181513	     -8.89700447	     -0.94983134	     -1.64472854	     -8.53509701	      4.86841040	     35.96931902	     90.00000001	      0.00000000	      0.00000000	     -9.55330575	     -9.71822583	     -5.91696185	     33.29087616	     90.00000001	      0.00000000	      0.00000000
